# xmcd
#
# Track frame offsets:
#	150
#	18655
#	33855
#
# Disc length: 705 seconds
#
# Revision: 5
# Processed by: cddbd v1.5.2PL0 Copyright (c) Steve Scherf et al.
# Submitted via: EasyCDDAExtractor 16.1.0.1
#
DISCID=1a02bf03
DTITLE=cd-uk
DYEAR=
DGENRE=soundtrack
TTITLE0=big green bath
TTITLE1=butterfly
TTITLE2=heroes
EXTD=
EXTT0=
EXTT1=
EXTT2=
PLAYORDER=
